<svg xmlns="http://www.w3.org/2000/svg" xmlns:xlink="http://www.w3.org/1999/xlink" version="1.1" id="Capa_1" x="0px" y="0px" style="enable-background:new 0 0 124 124;" xml:space="preserve" class="hovered-paths">
  <defs>
    <!-- Facebook SVG -->
    <symbol id="icon-facebook" viewBox="0 0 512 512">
      <title>Facebook</title>
      <path d="m437 0h-362c-41.351562 0-75 33.648438-75 75v362c0 41.351562 33.648438 75 75 75h151v-181h-60v-90h60v-61c0-49.628906 40.371094-90 90-90h91v90h-91v61h91l-15 90h-76v181h121c41.351562 0 75-33.648438 75-75v-362c0-41.351562-33.648438-75-75-75zm0 0"/>
    </symbol>
    <!-- Linkedin SVG -->
    <symbol id="icon-linkedin" viewBox="0 0 512 512">
      <title>Linkedin</title>
      <path d="m437 0h-362c-41.351562 0-75 33.648438-75 75v362c0 41.351562 33.648438 75 75 75h362c41.351562 0 75-33.648438 75-75v-362c0-41.351562-33.648438-75-75-75zm-256 406h-60v-210h60zm0-240h-60v-60h60zm210 240h-60v-120c0-16.539062-13.460938-30-30-30s-30 13.460938-30 30v120h-60v-210h60v11.308594c15.71875-4.886719 25.929688-11.308594 45-11.308594 40.691406.042969 75 36.546875 75 79.6875zm0 0"/>
    </symbol>
    <!-- Twitter SVG -->
    <symbol id="icon-twitter" viewBox="0 -47 512.00203 512">
      <title>Twitter</title>
      <path d="m191.011719 419.042969c-22.140625 0-44.929688-1.792969-67.855469-5.386719-40.378906-6.335938-81.253906-27.457031-92.820312-33.78125l-30.335938-16.585938 32.84375-10.800781c35.902344-11.804687 57.742188-19.128906 84.777344-30.597656-27.070313-13.109375-47.933594-36.691406-57.976563-67.175781l-7.640625-23.195313 6.265625.957031c-5.941406-5.988281-10.632812-12.066406-14.269531-17.59375-12.933594-19.644531-19.78125-43.648437-18.324219-64.21875l1.4375-20.246093 12.121094 4.695312c-5.113281-9.65625-8.808594-19.96875-10.980469-30.777343-5.292968-26.359376-.863281-54.363282 12.476563-78.851563l10.558593-19.382813 14.121094 16.960938c44.660156 53.648438 101.226563 85.472656 168.363282 94.789062-2.742188-18.902343-.6875-37.144531 6.113281-53.496093 7.917969-19.039063 22.003906-35.183594 40.722656-46.691407 20.789063-12.777343 46-18.96875 70.988281-17.433593 26.511719 1.628906 50.582032 11.5625 69.699219 28.746093 9.335937-2.425781 16.214844-5.015624 25.511719-8.515624 5.59375-2.105469 11.9375-4.496094 19.875-7.230469l29.25-10.078125-19.074219 54.476562c1.257813-.105468 2.554687-.195312 3.910156-.253906l31.234375-1.414062-18.460937 25.230468c-1.058594 1.445313-1.328125 1.855469-1.703125 2.421875-1.488282 2.242188-3.339844 5.03125-28.679688 38.867188-6.34375 8.472656-9.511718 19.507812-8.921875 31.078125 2.246094 43.96875-3.148437 83.75-16.042969 118.234375-12.195312 32.625-31.09375 60.617187-56.164062 83.199219-31.023438 27.9375-70.582031 47.066406-117.582031 56.847656-23.054688 4.796875-47.8125 7.203125-73.4375 7.203125zm0 0"/>
    </symbol>
    <!-- Github SVG -->
    <symbol id="icon-github" viewBox="0 0 512 512">
      <title>Github</title>
       <path d="m256 0c-140.609375 0-256 115.390625-256 256 0 119.988281 84.195312 228.984375 196 256v-84.695312c-11.078125 2.425781-21.273438 2.496093-32.550781-.828126-15.128907-4.464843-27.421875-14.542968-36.546875-29.910156-5.816406-9.8125-16.125-20.453125-26.878906-19.671875l-2.636719-29.882812c23.253906-1.992188 43.371093 14.167969 55.3125 34.230469 5.304687 8.921874 11.410156 14.152343 19.246093 16.464843 7.574219 2.230469 15.707032 1.160157 25.183594-2.1875 2.378906-18.972656 11.070313-26.074219 17.636719-36.074219v-.015624c-66.679687-9.945313-93.253906-45.320313-103.800781-73.242188-13.976563-37.074219-6.476563-83.390625 18.238281-112.660156.480469-.570313 1.347656-2.0625 1.011719-3.105469-11.332032-34.230469 2.476562-62.546875 2.984375-65.550781 13.078125 3.867187 15.203125-3.890625 56.808593 21.386718l7.191407 4.320313c3.007812 1.792969 2.0625.769531 5.070312.542969 17.371094-4.71875 35.683594-7.324219 53.726563-7.558594 18.179687.234375 36.375 2.839844 54.464844 7.75l2.328124.234375c-.203124-.03125.632813-.148437 2.035157-.984375 51.972656-31.480469 50.105469-21.191406 64.042969-25.722656.503906 3.007812 14.128906 31.785156 2.917968 65.582031-1.511718 4.65625 45.058594 47.300781 19.246094 115.753906-10.546875 27.933594-37.117188 63.308594-103.796875 73.253907v.015624c8.546875 13.027344 18.816406 19.957032 18.761719 46.832032v105.722656c111.808594-27.015625 196-136.011719 196-256 .003906-140.609375-115.386719-256-255.996094-256zm0 0"/>
     </symbol>
     <!-- Udemy SVG -->
     <symbol id="icon-udemy" viewBox="0 0 260.2 213.4">
       <title>Udemy</title>
       <path d="M88.5.9c11.6 3.6 15.2 12.9 15.2 23.5-.1 8.4-1.1 16.8-3.1 25-4.3 18.7-9.6 37.2-14 55.8-3.6 15.3-6.9 30.8-7 46.6.1 4.3.8 8.6 2 12.7 2.3 8.2 9.2 8.8 14.4 3.8 3.3-3.2 6.3-6.6 9-10.3 13-17.3 24.5-35.7 34.3-55 9.5-18.5 31.2-60.3 32.5-62.8 6.8-12.5 25.6-10.4 31.3 1.8 3.2 6.6 5 13.9 5.3 21.2.5 15.8 2 59.9 2.7 66.2 1.3 12.2 9.1 16.1 19.5 9.3 6.3-4.1 12-9.3 17.7-14.2 5.3-4.7 8.1-4.2 10.7 2.4 2.3 5.8 1.3 11.6-.6 17.1-6.4 18.6-20.3 28.5-38.8 32.5-5.9 1.3-12 1.4-18 .4-13.3-2.2-21.8-9.9-26.9-21.8-4.9-11.5-6.4-44.2-7.5-48.4-1.8 3.8-23.1 47.7-34.3 64.4-7 10.7-15.5 20.4-25.3 28.7-9.7 8.1-20.7 13.1-33.6 13.4-15.6.4-26.9-6.7-34.7-19.9-5-8.5-7.1-18-7.8-27.8-1-13.7 1.2-27.1 4.2-40.5 1-4.3 1.7-8.7 2.8-14.2-4.3 2.2-7.1 4.2-10.3 5.3-3.8 1.3-7.9 2.6-11.9 2.5C2.1 118.2 0 102.5 0 99.9c4.8-3.7 9.9-7.1 14.3-11.1 21-19 36.8-41.8 48.2-67.6C66.3 12.7 71 5.4 79.4.9c2.8-1.2 5.3-1.3 9.1 0z"/>
     </symbol>
    </defs>
  </svg>
